<svg xmlns="http://www.w3.org/2000/svg" width="23" height="23" viewBox="0 0 23 23">
  <g id="Icon_ionic-ios-arrow-dropdown" data-name="Icon ionic-ios-arrow-dropdown" transform="translate(-3.375 -3.375)">
    <path id="パス_20338" data-name="パス 20338" d="M10.293,14.73a1.08,1.08,0,0,0,0,1.515l5.276,5.293a1.058,1.058,0,0,0,1.466.033l5.2-5.215a1.076,1.076,0,0,0,.006-1.515,1.058,1.058,0,0,0-1.505,0l-4.466,4.427L11.8,14.725A1.058,1.058,0,0,0,10.293,14.73Z" transform="translate(-1.394 -2.373)" fill="#5456e0"/>
    <path id="パス_20339" data-name="パス 20339" d="M3.375,14.875a11.5,11.5,0,1,0,11.5-11.5A11.5,11.5,0,0,0,3.375,14.875ZM21.753,8A9.727,9.727,0,1,1,8,21.753,9.727,9.727,0,1,1,21.753,8Z" transform="translate(0 0)" fill="#5456e0"/>
  </g>
</svg>
